{
  "accessors": [
    {
      "bufferView": 2,
      "componentType": 5126,
      "count": 55,
      "max": [0.16250920295715332, 0.2514600157737732, -0.005079994909465313],
      "min": [0.0, 0.0634492039680481, -0.02539999969303608],
      "type": "VEC3"
    },
    {
      "bufferView": 2,
      "byteOffset": 660,
      "componentType": 5126,
      "count": 55,
      "max": [0.0, 0.0, 0.0],
      "min": [0.0, -1.0, -1.0],
      "type": "VEC3"
    },
    {
      "bufferView": 1,
      "componentType": 5126,
      "count": 55,
      "max": [0.30664101243019104, 0.5],
      "min": [0.30664101243019104, 0.5],
      "type": "VEC2"
    },
    {
      "bufferView": 0,
      "componentType": 5125,
      "count": 102,
      "type": "SCALAR"
    },
    {
      "bufferView": 2,
      "byteOffset": 1320,
      "componentType": 5126,
      "count": 8,
      "max": [0.1092200055718422, 0.12186920642852783, -0.030530791729688644],
      "min": [0.05582920461893082, 0.05079999938607216, -0.030530791729688644],
      "type": "VEC3"
    },
    {
      "bufferView": 2,
      "byteOffset": 1416,
      "componentType": 5126,
      "count": 8,
      "max": [0.0, 0.0, 1.0],
      "min": [0.0, 0.0, 0.9999999403953552],
      "type": "VEC3"
    },
    {
      "bufferView": 1,
      "byteOffset": 440,
      "componentType": 5126,
      "count": 8,
      "max": [1.0, 0.8333333730697632],
      "min": [0.0, -0.16666674613952637],
      "type": "VEC2"
    },
    {
      "bufferView": 0,
      "byteOffset": 408,
      "componentType": 5125,
      "count": 12,
      "type": "SCALAR"
    },
    {
      "bufferView": 2,
      "byteOffset": 1512,
      "componentType": 5126,
      "count": 39,
      "max": [0.16250920295715332, 0.23368000984191895, -0.015290793962776661],
      "min": [0.005080000031739473, 0.12700000405311584, -0.030530791729688644],
      "type": "VEC3"
    },
    {
      "bufferView": 2,
      "byteOffset": 1980,
      "componentType": 5126,
      "count": 39,
      "max": [0.0, -1.0, 0.0],
      "min": [0.0, -1.0, 0.0],
      "type": "VEC3"
    },
    {
      "bufferView": 1,
      "byteOffset": 504,
      "componentType": 5126,
      "count": 39,
      "max": [0.0, 0.0],
      "min": [0.0, 0.0],
      "type": "VEC2"
    },
    {
      "bufferView": 0,
      "byteOffset": 456,
      "componentType": 5125,
      "count": 63,
      "type": "SCALAR"
    },
    {
      "bufferView": 2,
      "byteOffset": 2448,
      "componentType": 5126,
      "count": 336,
      "max": [0.16250920295715332, 0.2540000081062317, -5.079631591797806e-5],
      "min": [0.0, 0.05079999938607216, -0.16256000101566315],
      "type": "VEC3"
    },
    {
      "bufferView": 2,
      "byteOffset": 6480,
      "componentType": 5126,
      "count": 336,
      "max": [1.0, 0.0, 1.0],
      "min": [-1.0, -1.0, -1.0],
      "type": "VEC3"
    },
    {
      "bufferView": 1,
      "byteOffset": 816,
      "componentType": 5126,
      "count": 336,
      "max": [3.8381142616271973, 1.0022413730621338],
      "min": [-0.14732372760772705, -2.290052652359009],
      "type": "VEC2"
    },
    {
      "bufferView": 0,
      "byteOffset": 708,
      "componentType": 5125,
      "count": 1032,
      "type": "SCALAR"
    },
    {
      "bufferView": 2,
      "byteOffset": 10512,
      "componentType": 5126,
      "count": 23,
      "max": [0.12192000448703766, 0.12700000405311584, -0.015290793962776661],
      "min": [0.0, 0.12186920642852783, -0.030530791729688644],
      "type": "VEC3"
    },
    {
      "bufferView": 2,
      "byteOffset": 10788,
      "componentType": 5126,
      "count": 23,
      "max": [0.0, -0.9999999403953552, 0.0],
      "min": [0.0, -1.0, 0.0],
      "type": "VEC3"
    },
    {
      "bufferView": 1,
      "byteOffset": 3504,
      "componentType": 5126,
      "count": 23,
      "max": [0.0, 0.0],
      "min": [0.0, 0.0],
      "type": "VEC2"
    },
    {
      "bufferView": 0,
      "byteOffset": 4836,
      "componentType": 5125,
      "count": 45,
      "type": "SCALAR"
    },
    {
      "bufferView": 2,
      "byteOffset": 11064,
      "componentType": 5126,
      "count": 60,
      "max": [0.12948919832706451, 0.12700000405311584, -5.079631591797806e-5],
      "min": [0.03302000090479851, 0.05079999938607216, -0.030530791729688644],
      "type": "VEC3"
    },
    {
      "bufferView": 2,
      "byteOffset": 11784,
      "componentType": 5126,
      "count": 60,
      "max": [1.0, 0.0, 1.0],
      "min": [-1.0, 0.0, 0.0],
      "type": "VEC3"
    },
    {
      "bufferView": 1,
      "byteOffset": 3688,
      "componentType": 5126,
      "count": 60,
      "max": [1.105867862701416, 1.0],
      "min": [-5.960464477539063e-8, -0.10584366321563721],
      "type": "VEC2"
    },
    {
      "bufferView": 0,
      "byteOffset": 5016,
      "componentType": 5125,
      "count": 126,
      "type": "SCALAR"
    },
    {
      "bufferView": 2,
      "byteOffset": 12504,
      "componentType": 5126,
      "count": 281,
      "max": [0.16250920295715332, 0.2514600157737732, -5.079631591797806e-5],
      "min": [0.0, 0.055879998952150345, -0.030530791729688644],
      "type": "VEC3"
    },
    {
      "bufferView": 2,
      "byteOffset": 15876,
      "componentType": 5126,
      "count": 281,
      "max": [0.0, 1.0, 0.0],
      "min": [0.0, -1.0, 0.0],
      "type": "VEC3"
    },
    {
      "bufferView": 1,
      "byteOffset": 4168,
      "componentType": 5126,
      "count": 281,
      "max": [0.0, 0.0],
      "min": [0.0, 0.0],
      "type": "VEC2"
    },
    {
      "bufferView": 0,
      "byteOffset": 5520,
      "componentType": 5125,
      "count": 705,
      "type": "SCALAR"
    },
    {
      "bufferView": 2,
      "byteOffset": 19248,
      "componentType": 5126,
      "count": 481,
      "max": [0.16250920295715332, 0.2540000081062317, -5.079631591797806e-5],
      "min": [0.0, 0.05079999938607216, -0.16256000101566315],
      "type": "VEC3"
    },
    {
      "bufferView": 2,
      "byteOffset": 25020,
      "componentType": 5126,
      "count": 481,
      "max": [1.0, 1.0, 1.0],
      "min": [-1.0, 0.0, -0.9999999403953552],
      "type": "VEC3"
    },
    {
      "bufferView": 1,
      "byteOffset": 6416,
      "componentType": 5126,
      "count": 481,
      "max": [1.0012407302856445, 1.5],
      "min": [-0.0012406706809997559, -0.009804010391235352],
      "type": "VEC2"
    },
    {
      "bufferView": 0,
      "byteOffset": 8340,
      "componentType": 5125,
      "count": 933,
      "type": "SCALAR"
    },
    {
      "bufferView": 2,
      "byteOffset": 30792,
      "componentType": 5126,
      "count": 32,
      "max": [0.15748000144958496, 0.23368000984191895, -0.030530791729688644],
      "min": [0.005080000031739473, 0.1473200023174286, -0.030530791729688644],
      "type": "VEC3"
    },
    {
      "bufferView": 2,
      "byteOffset": 31176,
      "componentType": 5126,
      "count": 32,
      "max": [0.0, 0.0, 1.0],
      "min": [0.0, 0.0, 0.9999999403953552],
      "type": "VEC3"
    },
    {
      "bufferView": 1,
      "byteOffset": 10264,
      "componentType": 5126,
      "count": 32,
      "max": [1.0000001192092896, 1.5],
      "min": [-5.960464477539063e-8, 0.5],
      "type": "VEC2"
    },
    {
      "bufferView": 0,
      "byteOffset": 12072,
      "componentType": 5125,
      "count": 48,
      "type": "SCALAR"
    },
    {
      "bufferView": 2,
      "byteOffset": 31560,
      "componentType": 5126,
      "count": 8,
      "max": [0.12192000448703766, 0.12186920642852783, -0.030530791729688644],
      "min": [0.04058919847011566, 0.05079999938607216, -0.030530791729688644],
      "type": "VEC3"
    },
    {
      "bufferView": 2,
      "byteOffset": 31656,
      "componentType": 5126,
      "count": 8,
      "max": [0.0, 0.0, 1.0],
      "min": [0.0, 0.0, 1.0],
      "type": "VEC3"
    },
    {
      "bufferView": 1,
      "byteOffset": 10520,
      "componentType": 5126,
      "count": 8,
      "max": [1.0, 0.8333333730697632],
      "min": [-5.960464477539063e-7, -0.16666674613952637],
      "type": "VEC2"
    },
    {
      "bufferView": 0,
      "byteOffset": 12264,
      "componentType": 5125,
      "count": 12,
      "type": "SCALAR"
    }
  ],
  "asset": {
    "extras": {
      "author": "tl0615 (https://sketchfab.com/tl0615)",
      "license": "CC-BY-4.0 (http://creativecommons.org/licenses/by/4.0/)",
      "source": "https://sketchfab.com/3d-models/low-poly-brick-building-a0cc89d6d7d94effaea4f267f02685ef",
      "title": "Low Poly Brick Building"
    },
    "generator": "Sketchfab-10.50.0",
    "version": "2.0"
  },
  "bufferViews": [
    {
      "buffer": 0,
      "byteLength": 12312,
      "name": "floatBufferViews",
      "target": 34963
    },
    {
      "buffer": 0,
      "byteLength": 10584,
      "byteOffset": 12312,
      "byteStride": 8,
      "name": "floatBufferViews",
      "target": 34962
    },
    {
      "buffer": 0,
      "byteLength": 31752,
      "byteOffset": 22896,
      "byteStride": 12,
      "name": "floatBufferViews",
      "target": 34962
    }
  ],
  "buffers": [
    {
      "byteLength": 54648,
      "uri": "building1.bin"
    }
  ],
  "images": [
    {
      "uri": "building1Textures/material_0_baseColor.png"
    },
    {
      "uri": "building1Textures/material_5_emissive.png"
    },
    {
      "uri": "building1Textures/material_6_baseColor.png"
    },
    {
      "uri": "building1Textures/material_1_baseColor.png"
    },
    {
      "uri": "building1Textures/material_2_baseColor.png"
    },
    {
      "uri": "building1Textures/material_3_baseColor.png"
    },
    {
      "uri": "building1Textures/material_4_baseColor.png"
    }
  ],
  "materials": [
    {
      "name": "material_0",
      "pbrMetallicRoughness": {
        "baseColorTexture": {
          "index": 0
        },
        "metallicFactor": 0.0
      }
    },
    {
      "emissiveFactor": [1.0, 1.0, 1.0],
      "emissiveTexture": {
        "index": 1
      },
      "name": "material_5",
      "pbrMetallicRoughness": {
        "baseColorFactor": [
          0.03105855034348466, 0.013864017641819383, 0.0018348376739857103, 1.0
        ],
        "metallicFactor": 0.0,
        "roughnessFactor": 0.043702764654737325
      }
    },
    {
      "emissiveFactor": [1.0, 1.0, 1.0],
      "emissiveTexture": {
        "index": 3
      },
      "name": "material_6",
      "pbrMetallicRoughness": {
        "baseColorTexture": {
          "index": 2
        },
        "metallicFactor": 0.0
      }
    },
    {
      "name": "material_1",
      "pbrMetallicRoughness": {
        "baseColorTexture": {
          "index": 4
        },
        "metallicFactor": 0.0
      }
    },
    {
      "name": "material_2",
      "pbrMetallicRoughness": {
        "baseColorTexture": {
          "index": 5
        },
        "metallicFactor": 0.0
      }
    },
    {
      "name": "material_3",
      "pbrMetallicRoughness": {
        "baseColorTexture": {
          "index": 6
        },
        "metallicFactor": 0.0
      }
    },
    {
      "name": "material_4",
      "pbrMetallicRoughness": {
        "baseColorTexture": {
          "index": 7
        },
        "metallicFactor": 0.0
      }
    }
  ],
  "meshes": [
    {
      "name": "Object_0",
      "primitives": [
        {
          "attributes": {
            "NORMAL": 1,
            "POSITION": 0,
            "TEXCOORD_0": 2
          },
          "indices": 3,
          "material": 0,
          "mode": 4
        }
      ]
    },
    {
      "name": "Object_1",
      "primitives": [
        {
          "attributes": {
            "NORMAL": 5,
            "POSITION": 4,
            "TEXCOORD_0": 6
          },
          "indices": 7,
          "material": 3,
          "mode": 4
        }
      ]
    },
    {
      "name": "Object_2",
      "primitives": [
        {
          "attributes": {
            "NORMAL": 9,
            "POSITION": 8,
            "TEXCOORD_0": 10
          },
          "indices": 11,
          "material": 4,
          "mode": 4
        }
      ]
    },
    {
      "name": "Object_3",
      "primitives": [
        {
          "attributes": {
            "NORMAL": 13,
            "POSITION": 12,
            "TEXCOORD_0": 14
          },
          "indices": 15,
          "material": 4,
          "mode": 4
        }
      ]
    },
    {
      "name": "Object_4",
      "primitives": [
        {
          "attributes": {
            "NORMAL": 17,
            "POSITION": 16,
            "TEXCOORD_0": 18
          },
          "indices": 19,
          "material": 5,
          "mode": 4
        }
      ]
    },
    {
      "name": "Object_5",
      "primitives": [
        {
          "attributes": {
            "NORMAL": 21,
            "POSITION": 20,
            "TEXCOORD_0": 22
          },
          "indices": 23,
          "material": 5,
          "mode": 4
        }
      ]
    },
    {
      "name": "Object_6",
      "primitives": [
        {
          "attributes": {
            "NORMAL": 25,
            "POSITION": 24,
            "TEXCOORD_0": 26
          },
          "indices": 27,
          "material": 6,
          "mode": 4
        }
      ]
    },
    {
      "name": "Object_7",
      "primitives": [
        {
          "attributes": {
            "NORMAL": 29,
            "POSITION": 28,
            "TEXCOORD_0": 30
          },
          "indices": 31,
          "material": 6,
          "mode": 4
        }
      ]
    },
    {
      "name": "Object_8",
      "primitives": [
        {
          "attributes": {
            "NORMAL": 33,
            "POSITION": 32,
            "TEXCOORD_0": 34
          },
          "indices": 35,
          "material": 1,
          "mode": 4
        }
      ]
    },
    {
      "name": "Object_9",
      "primitives": [
        {
          "attributes": {
            "NORMAL": 37,
            "POSITION": 36,
            "TEXCOORD_0": 38
          },
          "indices": 39,
          "material": 2,
          "mode": 4
        }
      ]
    }
  ],
  "nodes": [
    {
      "children": [1],
      "matrix": [
        -1.8503717641774574e-14, 5.102695374826766e-15, -83.33333587646484, 0.0,
        -83.33333587646484, 1.3401022266947803e-14, 1.8503717641774577e-14, 0.0,
        1.3401022266947808e-14, 83.33333587646484, 5.102695374826766e-15, 0.0,
        1.2831742763519287, -2.070600366517104e-8, -1.609203577041626, 1.0
      ],
      "name": "Sketchfab_model"
    },
    {
      "children": [2],
      "name": "root"
    },
    {
      "children": [3],
      "matrix": [
        1.0, 0.0, 0.0, 0.0, 0.0, 2.220446049250313e-16, 1.0, 0.0, 0.0, -1.0,
        2.220446049250313e-16, 0.0, 0.0, 0.0, 0.0, 1.0
      ],
      "name": "GLTF_SceneRootNode"
    },
    {
      "children": [4, 5, 6, 7, 8, 9, 10, 11, 12, 13],
      "matrix": [
        0.0007620241958647966, -1.1733277460734826e-8, 0.3936999440193176, 0.0,
        2.0288614450691966e-6, 0.3936985731124878, -5.01444162637199e-7, 0.0,
        -0.3936988413333893, 2.3325756046688184e-6, 0.0007615162176080048, 0.0,
        -0.1950855553150177, -0.019999995827674866, -1.4781074523925781, 1.0
      ],
      "name": "_0"
    },
    {
      "mesh": 0,
      "name": "Object_4"
    },
    {
      "mesh": 1,
      "name": "Object_5"
    },
    {
      "mesh": 2,
      "name": "Object_6"
    },
    {
      "mesh": 3,
      "name": "Object_7"
    },
    {
      "mesh": 4,
      "name": "Object_8"
    },
    {
      "mesh": 5,
      "name": "Object_9"
    },
    {
      "mesh": 6,
      "name": "Object_10"
    },
    {
      "mesh": 7,
      "name": "Object_11"
    },
    {
      "mesh": 8,
      "name": "Object_12"
    },
    {
      "mesh": 9,
      "name": "Object_13"
    }
  ],
  "samplers": [
    {
      "magFilter": 9729,
      "minFilter": 9729,
      "wrapS": 10497,
      "wrapT": 10497
    },
    {
      "magFilter": 9729,
      "minFilter": 9987,
      "wrapS": 10497,
      "wrapT": 10497
    }
  ],
  "scene": 0,
  "scenes": [
    {
      "name": "Sketchfab_Scene",
      "nodes": [0]
    }
  ],
  "textures": [
    {
      "sampler": 0,
      "source": 0
    },
    {
      "sampler": 1,
      "source": 1
    },
    {
      "sampler": 0,
      "source": 2
    },
    {
      "sampler": 1,
      "source": 2
    },
    {
      "sampler": 0,
      "source": 3
    },
    {
      "sampler": 0,
      "source": 4
    },
    {
      "sampler": 0,
      "source": 5
    },
    {
      "sampler": 0,
      "source": 6
    }
  ]
}
